HIERARCHY
ROOT joint_Root
{
	OFFSET 0.0 0.0 0.0
	CHANNELS 6 Xposition Yposition Zposition Zrotation Xrotation Yrotation 
	JOINT Hips
	{
		OFFSET 4.5925 91.4895 -427.239
		CHANNELS 6 Xposition Yposition Zposition Zrotation Xrotation Yrotation 
		JOINT Spine
		{
			OFFSET 15.7357 0.0 0.0
			CHANNELS 6 Xposition Yposition Zposition Zrotation Xrotation Yrotation 
			JOINT Chest
			{
				OFFSET 8.98455 -0.406207 0.0
				CHANNELS 6 Xposition Yposition Zposition Zrotation Xrotation Yrotation 
				JOINT Neck
				{
					OFFSET 16.3773 0.0 0.0
					CHANNELS 6 Xposition Yposition Zposition Zrotation Xrotation Yrotation 
					JOINT Head
					{
						OFFSET 6.45672 0.0 0.0
						CHANNELS 6 Xposition Yposition Zposition Zrotation Xrotation Yrotation 
						End Site
						{
							OFFSET 0.0 0.0 0.0
						}
					}
				}
				JOINT Shoulder_L
				{
					OFFSET 12.9942 -0.242716 4.98039
					CHANNELS 6 Xposition Yposition Zposition Zrotation Xrotation Yrotation 
					JOINT UpperArm_L
					{
						OFFSET 5.34809 0.0 0.0
						CHANNELS 6 Xposition Yposition Zposition Zrotation Xrotation Yrotation 
						JOINT LowerArm_L
						{
							OFFSET 24.3286 1.87007e-05 0.0
							CHANNELS 6 Xposition Yposition Zposition Zrotation Xrotation Yrotation 
							JOINT Hand_L
							{
								OFFSET 22.2916 0.0 0.0
								CHANNELS 6 Xposition Yposition Zposition Zrotation Xrotation Yrotation 
								End Site
								{
									OFFSET 0.0 0.0 0.0
								}
							}
						}
					}
				}
				JOINT Shoulder_R
				{
					OFFSET 12.9945 -0.242716 -4.98039
					CHANNELS 6 Xposition Yposition Zposition Zrotation Xrotation Yrotation 
					JOINT UpperArm_R
					{
						OFFSET -5.34813 0.0 0.0
						CHANNELS 6 Xposition Yposition Zposition Zrotation Xrotation Yrotation 
						JOINT LowerArm_R
						{
							OFFSET -24.3289 0.000322201 0.0
							CHANNELS 6 Xposition Yposition Zposition Zrotation Xrotation Yrotation 
							JOINT Hand_R
							{
								OFFSET -22.2915 -0.000108084 0.0
								CHANNELS 6 Xposition Yposition Zposition Zrotation Xrotation Yrotation 
								End Site
								{
									OFFSET 0.0 0.0 0.0
								}
							}
						}
					}
				}
			}
		}
		JOINT UpperLeg_L
		{
			OFFSET -2.19248 -6.46944 0.0
			CHANNELS 6 Xposition Yposition Zposition Zrotation Xrotation Yrotation 
			JOINT LowerLeg_L
			{
				OFFSET 39.0811 0.0 -1.23785e-05
				CHANNELS 6 Xposition Yposition Zposition Zrotation Xrotation Yrotation 
				JOINT Foot_L
				{
					OFFSET 40.9854 0.0 -1.26872e-05
					CHANNELS 6 Xposition Yposition Zposition Zrotation Xrotation Yrotation 
					JOINT Toes_L
					{
						OFFSET 11.7543 0.0 0.0
						CHANNELS 6 Xposition Yposition Zposition Zrotation Xrotation Yrotation 
						End Site
						{
							OFFSET 0.0 0.0 0.0
						}
					}
				}
			}
		}
		JOINT UpperLeg_R
		{
			OFFSET -2.19251 6.46944 0.0
			CHANNELS 6 Xposition Yposition Zposition Zrotation Xrotation Yrotation 
			JOINT LowerLeg_R
			{
				OFFSET -39.0811 -0.00228153 -0.0401928
				CHANNELS 6 Xposition Yposition Zposition Zrotation Xrotation Yrotation 
				JOINT Foot_R
				{
					OFFSET -40.9854 0.0 0.0
					CHANNELS 6 Xposition Yposition Zposition Zrotation Xrotation Yrotation 
					JOINT Toes_R
					{
						OFFSET -11.7543 0.0 0.0
						CHANNELS 6 Xposition Yposition Zposition Zrotation Xrotation Yrotation 
						End Site
						{
							OFFSET 0.0 0.0 0.0
						}
					}
				}
			}
		}
	}
}
MOTION
Frames:	7
Frame Time:	0.0333333
0.000000 0.000000 0.000000 0.000000 0.000000 -0.000000 -1.429160 90.699700 -0.471713 89.590800 -2.726240 9.329690 15.735700 0.000005 -0.000001 86.432700 80.337100 -87.112200 8.984550 -0.406207 -0.000000 11.517200 -1.214910 -1.235930 16.377300 -0.000001 -0.000001 15.734100 -4.071000 2.441290 6.456720 -0.000001 -0.000000 -2.547320 -3.823470 0.961135 12.994200 -0.242716 4.980390 -88.876900 -3.659170 -72.924200 5.348090 -0.000007 -0.000001 -70.659300 -10.400900 -78.688500 24.328600 0.000019 0.000005 42.395300 -7.822270 -98.478900 22.291600 -0.000001 0.000005 22.045600 5.123030 4.580620 12.994500 -0.242716 -4.980390 90.038800 -0.192560 -78.591700 -5.348130 -0.000001 -0.000004 -66.053700 -13.017700 -77.764400 -24.328900 0.000322 -0.000009 19.934800 -4.849010 -103.120000 -22.291500 -0.000108 -0.000004 24.992500 5.327600 -0.715665 -2.192480 -6.469440 -0.000000 -175.040000 -12.332100 -1.945960 39.081100 -0.000007 -0.000012 -0.197330 0.319426 31.706600 40.985400 -0.000006 -0.000013 0.253833 4.937430 -70.207800 11.754300 -0.000000 0.000003 -0.000204 -0.001881 -16.648500 -2.192510 6.469440 -0.000001 174.946000 20.841000 179.832000 -39.081100 -0.002282 -0.040193 -0.141205 0.239593 31.095400 -40.985400 0.000008 0.000006 6.062470 14.028100 -71.954300 -11.754300 -0.000006 -0.000006 -0.001988 -0.028566 -17.734700
0.000000 0.000000 0.000000 0.000000 0.000000 -0.000000 -1.404610 90.692200 -0.446002 89.591500 -2.732070 9.340850 15.735700 0.000005 -0.000001 86.417400 80.353100 -87.096200 8.984550 -0.406207 -0.000000 11.485100 -1.217880 -1.234520 16.377300 -0.000001 -0.000001 15.707900 -4.057720 2.368130 6.456720 -0.000001 -0.000000 -2.504910 -3.811460 0.973254 12.994200 -0.242716 4.980390 -88.877300 -3.658860 -72.929000 5.348090 -0.000007 -0.000001 -70.617100 -10.371800 -78.677600 24.328600 0.000019 0.000005 42.261200 -7.914540 -98.616600 22.291600 -0.000001 0.000005 21.981400 5.125150 4.531050 12.994500 -0.242716 -4.980390 90.035200 -0.174373 -78.569500 -5.348130 -0.000001 -0.000004 -66.069100 -12.947100 -77.734000 -24.328900 0.000322 -0.000009 19.942100 -4.858390 -103.139000 -22.291500 -0.000108 -0.000004 25.143200 5.327790 -0.721016 -2.192480 -6.469440 -0.000000 -175.060000 -12.316100 -1.923630 39.081100 -0.000007 -0.000012 -0.197394 0.319182 31.734500 40.985400 -0.000006 -0.000013 0.268145 4.912930 -70.251200 11.754300 -0.000000 0.000003 -0.000206 -0.001897 -16.649100 -2.192510 6.469440 -0.000001 174.923000 20.805400 179.848000 -39.081100 -0.002282 -0.040193 -0.141565 0.239878 31.128300 -40.985400 0.000008 0.000006 6.084180 13.989500 -71.996400 -11.754300 -0.000006 -0.000006 -0.001998 -0.028687 -17.739600
0.000000 0.000000 0.000000 0.000000 0.000000 -0.000000 -1.375900 90.688100 -0.414351 89.604000 -2.768870 9.366890 15.735700 0.000005 -0.000001 86.425400 80.370200 -87.105700 8.984550 -0.406207 -0.000000 11.451100 -1.213010 -1.238480 16.377300 -0.000001 -0.000001 15.689900 -4.051210 2.314990 6.456720 -0.000001 -0.000000 -2.542800 -3.804920 0.939685 12.994200 -0.242716 4.980390 -88.884400 -3.634450 -72.922400 5.348090 -0.000007 -0.000001 -70.592500 -10.319000 -78.670500 24.328600 0.000019 0.000005 42.317400 -7.992820 -98.683100 22.291600 -0.000001 0.000005 22.075000 5.126170 4.507340 12.994500 -0.242716 -4.980390 90.038000 -0.188016 -78.562100 -5.348130 -0.000001 -0.000004 -66.093200 -12.879600 -77.687000 -24.328900 0.000322 -0.000009 20.004900 -4.879430 -103.151000 -22.291500 -0.000108 -0.000004 25.244200 5.324760 -0.633154 -2.192480 -6.469440 -0.000000 -175.083000 -12.344200 -1.869240 39.081100 -0.000007 -0.000012 -0.197770 0.319755 31.737300 40.985400 -0.000006 -0.000013 0.275701 4.864380 -70.282500 11.754300 -0.000000 0.000003 -0.000215 -0.001965 -16.651500 -2.192510 6.469440 -0.000001 174.878000 20.747800 179.883000 -39.081100 -0.002282 -0.040193 -0.144179 0.244106 31.138700 -40.985400 0.000008 0.000006 6.007700 13.987600 -71.995200 -11.754300 -0.000006 -0.000006 -0.001965 -0.028279 -17.723000
0.000000 0.000000 0.000000 0.000000 0.000000 -0.000000 -1.344130 90.683500 -0.385892 89.605200 -2.796860 9.373660 15.735700 0.000005 -0.000001 86.380100 80.398300 -87.060800 8.984550 -0.406207 -0.000000 11.394100 -1.224320 -1.238760 16.377300 -0.000001 -0.000001 15.621100 -4.045690 2.298190 6.456720 -0.000001 -0.000000 -2.552460 -3.770470 0.892413 12.994200 -0.242716 4.980390 -88.893000 -3.592570 -72.861000 5.348090 -0.000007 -0.000001 -70.590100 -10.226600 -78.703600 24.328600 0.000019 0.000005 42.156200 -8.003120 -98.742600 22.291600 -0.000001 0.000005 22.111300 5.126230 4.505920 12.994500 -0.242716 -4.980390 90.035200 -0.173847 -78.543200 -5.348130 -0.000001 -0.000004 -66.074000 -12.836100 -77.652500 -24.328900 0.000322 -0.000009 20.063800 -4.878630 -103.108000 -22.291500 -0.000108 -0.000004 25.336000 5.326210 -0.675291 -2.192480 -6.469440 -0.000000 -175.094000 -12.357000 -1.846990 39.081100 -0.000007 -0.000012 -0.199708 0.322709 31.751600 40.985400 -0.000006 -0.000013 0.292857 4.861270 -70.314200 11.754300 -0.000000 0.000003 -0.000218 -0.001989 -16.652400 -2.192510 6.469440 -0.000001 174.838000 20.730000 179.910000 -39.081100 -0.002282 -0.040193 -0.145797 0.246689 31.148400 -40.985400 0.000008 0.000006 5.985700 14.016700 -72.015600 -11.754300 -0.000006 -0.000006 -0.002025 -0.029035 -17.753700
0.000000 0.000000 0.000000 0.000000 0.000000 -0.000000 -1.309440 90.685300 -0.365862 89.594900 -2.843800 9.365210 15.735700 0.000005 -0.000001 86.374100 80.438900 -87.055400 8.984550 -0.406207 -0.000000 11.312800 -1.220880 -1.241180 16.377300 -0.000001 -0.000001 15.556500 -4.048770 2.298730 6.456720 -0.000001 -0.000000 -2.551600 -3.771770 0.884464 12.994200 -0.242716 4.980390 -88.891300 -3.592350 -72.835100 5.348090 -0.000007 -0.000001 -70.611100 -10.160400 -78.746200 24.328600 0.000019 0.000005 42.111900 -8.001970 -98.754700 22.291600 -0.000001 0.000005 22.201400 5.126110 4.508530 12.994500 -0.242716 -4.980390 90.039400 -0.194792 -78.559600 -5.348130 -0.000001 -0.000004 -66.068400 -12.871800 -77.593900 -24.328900 0.000322 -0.000009 20.010300 -4.855510 -103.085000 -22.291500 -0.000108 -0.000004 25.348700 5.327100 -0.700995 -2.192480 -6.469440 -0.000000 -175.099000 -12.406900 -1.823570 39.081100 -0.000007 -0.000012 -0.196327 0.317379 31.740800 40.985400 -0.000006 -0.000013 0.321715 4.875350 -70.336400 11.754300 -0.000000 0.000003 -0.000198 -0.001833 -16.646700 -2.192510 6.469440 -0.000001 174.836000 20.694100 179.912000 -39.081100 -0.002282 -0.040193 -0.142697 0.241734 31.130200 -40.985400 0.000008 0.000006 5.970090 14.040300 -72.007300 -11.754300 -0.000006 -0.000006 -0.002036 -0.029161 -17.758900
0.000000 0.000000 0.000000 0.000000 0.000000 -0.000000 -1.279380 90.680200 -0.340724 89.589200 -2.884620 9.405000 15.735700 0.000005 -0.000001 86.386800 80.476200 -87.068500 8.984550 -0.406207 -0.000000 11.238700 -1.211690 -1.243610 16.377300 -0.000001 -0.000001 15.546800 -4.032650 2.269310 6.456720 -0.000001 -0.000000 -2.622030 -3.787850 0.936164 12.994200 -0.242716 4.980390 -88.892600 -3.588960 -72.839100 5.348090 -0.000007 -0.000001 -70.615300 -10.150500 -78.794600 24.328600 0.000019 0.000005 42.031700 -7.979380 -98.754800 22.291600 -0.000001 0.000005 22.160700 5.128750 4.446580 12.994500 -0.242716 -4.980390 90.041900 -0.206974 -78.559000 -5.348130 -0.000001 -0.000004 -66.038400 -12.932300 -77.555300 -24.328900 0.000322 -0.000009 20.081500 -4.842290 -103.002000 -22.291500 -0.000108 -0.000004 25.327100 5.326470 -0.682953 -2.192480 -6.469440 -0.000000 -175.088000 -12.470500 -1.766480 39.081100 -0.000007 -0.000012 -0.197887 0.319649 31.760900 40.985400 -0.000006 -0.000013 0.344212 4.883180 -70.371200 11.754300 -0.000000 0.000003 -0.000219 -0.002000 -16.652800 -2.192510 6.469440 -0.000001 174.786000 20.696900 179.971000 -39.081100 -0.002282 -0.040193 -0.146198 0.247481 31.135300 -40.985400 0.000008 0.000006 5.916610 14.097000 -72.010100 -11.754300 -0.000006 -0.000006 -0.001986 -0.028536 -17.733500
0.000000 0.000000 0.000000 0.000000 0.000000 -0.000000 -1.250880 90.683700 -0.313673 89.580000 -2.915920 9.429770 15.735700 0.000005 -0.000001 86.321500 80.509600 -87.000500 8.984550 -0.406207 -0.000000 11.170600 -1.228570 -1.237210 16.377300 -0.000001 -0.000001 15.461600 -4.016150 2.264640 6.456720 -0.000001 -0.000000 -2.643120 -3.765840 0.908737 12.994200 -0.242716 4.980390 -88.882600 -3.613850 -72.804900 5.348090 -0.000007 -0.000001 -70.666100 -10.171100 -78.865800 24.328600 0.000019 0.000005 41.965300 -7.981300 -98.777000 22.291600 -0.000001 0.000005 22.094300 5.127810 4.468770 12.994500 -0.242716 -4.980390 90.041000 -0.202097 -78.527000 -5.348130 -0.000001 -0.000004 -66.015500 -12.952300 -77.657600 -24.328900 0.000322 -0.000009 20.106600 -4.807240 -102.894000 -22.291500 -0.000108 -0.000004 25.286800 5.325490 -0.654319 -2.192480 -6.469440 -0.000000 -175.091000 -12.487000 -1.706010 39.081100 -0.000007 -0.000012 -0.197289 0.318957 31.738900 40.985400 -0.000006 -0.000013 0.360067 4.863050 -70.386200 11.754300 -0.000000 0.000003 -0.000207 -0.001907 -16.649400 -2.192510 6.469440 -0.000001 174.758000 20.695000 -179.969000 -39.081100 -0.002282 -0.040193 -0.143754 0.243742 31.103400 -40.985400 0.000008 0.000006 5.922280 14.133600 -72.011800 -11.754300 -0.000006 -0.000006 -0.002063 -0.029497 -17.772500
